<svg width="100" height="30" viewBox="0 0 100 30" fill="none" xmlns="http://www.w3.org/2000/svg">
<g clip-path="url(#clip0_2803_4372)">
<path d="M43.2916 10.9883H50.1786C53.3458 10.9883 55.397 12.0394 55.397 14.8199C55.397 16.7525 54.1676 17.7408 52.2025 18.0863V18.1261C54.1676 18.3668 55.5714 19.3781 55.5714 21.4049C55.5714 24.2818 53.432 25.3706 50.0147 25.3706H43.2895V10.9883H43.2916ZM46.7488 16.7797H49.9433C51.158 16.7797 51.7927 16.3065 51.7927 15.2115C51.7927 14.1164 51.158 13.6558 49.7268 13.6558H46.7488V16.7797ZM46.7635 22.7031H49.7205C51.3871 22.7031 51.9692 22.1106 51.9692 21.0867C51.9692 19.9435 51.4291 19.4431 50.1513 19.4431H46.7614V22.7031" fill="#254AA5"/>
<path d="M67.3343 10.9883V13.7772H60.422V16.6583H66.9644V19.4451H60.422V22.5838H67.5381V25.3706H56.9059V10.9883H67.3343Z" fill="#254AA5"/>
<path d="M81.3732 10.9883H84.8914V25.3706H81.3753V10.9883" fill="#254AA5"/>
<path d="M85.1541 10.9883H89.5234L92.4783 15.7014L95.3869 10.9883H99.7352L94.7333 17.9983L100 25.3706H95.6181L92.472 20.3287L89.2544 25.3706H84.8914L90.2379 17.9983L85.1541 10.9883Z" fill="#254AA5"/>
<path d="M75.4129 16.6647L73.5299 16.3171C72.2773 16.1036 71.6867 15.6597 71.6783 14.8913C71.6678 13.8339 72.9099 13.3984 73.9985 13.3984C75.7303 13.3984 76.7622 13.9407 77.6617 15.109L80.0113 12.9859C78.4435 11.2125 76.3881 10.4922 74.2108 10.4922C71.0836 10.4922 68.1875 11.7903 68.1875 15.3058C68.1875 17.6781 69.8667 19.1396 72.6367 19.6002L75.0494 20.0043C76.2032 20.2053 76.7748 20.6115 76.7748 21.3674C76.7748 22.4897 75.2532 22.9587 74.36 22.9587C72.3425 22.9587 70.9911 22.0353 70.037 20.7665L67.536 22.5818C69.1038 24.862 71.6468 25.8649 74.0301 25.8649C76.7937 25.8649 80.2845 24.8201 80.2845 20.7979C80.2845 18.2078 78.1682 17.1233 75.4129 16.6647Z" fill="#254AA5"/>
<path d="M38.9391 3.99928C28.7798 1.63747 13.1184 1.12658 3.44458 8.00053L5.71435 10.2618C14.9342 6.70656 25.9867 7.47289 33.9078 8.54073C23.6056 8.35648 15.8758 9.93939 10.4136 11.8887C17.5171 9.62742 26.0309 9.28194 33.1428 9.89961C32.4387 11.5663 31.9722 13.6391 31.8524 15.913C34.4542 15.9444 35.6668 16.1559 37.1359 16.2815C37.6361 7.96284 42.1336 4.85355 42.1336 4.85355C41.15 4.54995 40.0761 4.2631 38.9391 3.99928Z" fill="#ED1C24"/>
<path d="M31.8335 16.3674C21.2013 16.8134 14.4277 20.3017 10.8633 22.787L18.0909 30.0002C17.4499 22.4311 29.4355 21.9223 32.1571 21.5936C31.9364 20.3226 31.8124 18.9219 31.8124 17.452C31.8124 17.1463 31.8335 16.4261 31.8356 16.3695" fill="#219ADE"/>
<path d="M33.1449 9.89962C24.007 9.5018 12.965 11.6396 4.51639 16.4742L3.26172 15.2242C5.35495 13.8171 7.79074 12.7263 10.4157 11.8887C17.5192 9.62743 26.0329 9.28195 33.1449 9.89753" fill="#219ADE"/>
<path d="M42.1357 4.8535C41.1521 4.5499 40.0782 4.26305 38.9412 3.99923C28.971 1.45944 13.7342 -1.06359 1.64348 6.20609L0 4.57083C13.2634 -3.63268 33.8531 0.952744 42.1357 4.85559" fill="#219ADE"/>
<path d="M4.51428 16.4741L10.0164 21.9577C17.3174 17.2844 26.2494 15.8543 31.8523 15.9129C31.9721 13.639 32.4366 11.5662 33.1428 9.89952C24.0048 9.5017 12.9629 11.6395 4.51428 16.4741Z" fill="#254AA5"/>
<path d="M33.9099 8.54079C25.9867 7.47504 14.9363 6.70871 5.71642 10.2619C3.99939 10.9361 2.33069 11.7778 0.821716 12.7933L2.12893 14.0956C11.3824 7.86449 25.6105 8.18903 33.9099 8.54079Z" fill="#254AA5"/>
</g>
<defs>
<clipPath id="clip0_2803_4372">
<rect width="100" height="30" fill="white"/>
</clipPath>
</defs>
</svg>
