<svg width="49" height="53" viewBox="0 0 49 53" fill="none" xmlns="http://www.w3.org/2000/svg">
<g clip-path="url(#clip0_1184_596)">
<path d="M44.1016 20.3938C43.6515 20.8802 43.2982 21.3788 43.1287 21.8773C42.7367 23.0317 43.0828 24.5346 44.1936 25.0356C44.9971 25.3962 45.9796 25.1324 46.6548 24.5661C47.3276 23.9973 47.739 23.1793 48.0318 22.3468C49.905 17.0347 47.0711 10.9845 42.9206 7.58425C42.5673 7.29384 42.1994 7.02279 41.8195 6.76868C39.9052 5.49087 37.7489 4.76 35.5974 4.63416C32.536 0.953192 27.1053 -0.498863 22.4733 0.149722C22.0207 0.212645 21.5706 0.297347 21.1277 0.406251C18.802 0.967712 16.7352 2.11968 15.1597 3.70727C10.5543 3.67822 6.03843 6.59201 3.45861 10.2899C3.19724 10.665 2.95281 11.0522 2.73016 11.4491C1.27085 14.0483 0.752949 16.979 1.27085 19.7041C1.70646 21.9862 2.98185 24.1522 4.77272 25.6479C6.51276 27.0999 8.58436 27.8042 10.6753 27.6735C10.9343 30.7664 12.275 33.806 14.7701 36.3011C16.9385 38.4695 19.5208 39.7643 22.1901 40.2362C22.0038 41.7875 21.2681 43.2589 20.0556 44.4689C19.0198 45.5023 17.7057 46.2767 16.2996 46.7051C16.227 46.4849 16.1617 46.2598 16.106 46.0226C16.014 45.6233 15.9511 45.2143 15.9245 44.8053C15.8809 44.1446 15.7624 43.5445 15.5179 43.0798C14.9492 42.0004 13.623 41.2163 12.4952 41.6786C11.6797 42.0125 11.1956 42.908 11.1424 43.7865C11.0892 44.665 11.4038 45.5265 11.8031 46.313C11.9192 46.543 12.0475 46.7632 12.1806 46.981C10.5011 46.7317 8.82637 46.0759 7.3598 45.0691C3.54331 42.4457 0.808611 37.7798 3.7708 33.4261C4.00071 33.0872 4.25966 32.7654 4.54281 32.4677C4.99779 31.9885 5.3608 31.4924 5.53505 30.9987C5.94404 29.8492 5.61733 28.3414 4.51377 27.826C3.71514 27.4533 2.72774 27.705 2.0477 28.2616C1.36523 28.8206 0.944136 29.6338 0.641625 30.4614C-1.30655 35.7469 1.44267 41.8359 5.54715 45.2942C5.89564 45.5894 6.25865 45.8653 6.63619 46.1243C8.64002 47.5013 10.9222 48.2757 13.1922 48.3677C16.2415 51.8962 21.5028 53.3386 26.0308 52.7698C26.4834 52.7118 26.9335 52.6343 27.3812 52.5327C29.7263 52.0003 31.8197 50.8701 33.4193 49.2922C38.1869 49.464 42.8819 46.4147 45.4956 42.5546C45.7521 42.1771 45.9893 41.7851 46.2071 41.3857C47.6301 38.7648 48.1069 35.8268 47.5503 33.1114C47.0832 30.8366 45.7763 28.6875 43.9661 27.2185C42.3979 25.948 40.5755 25.2728 38.7169 25.2534C38.4943 22.1048 37.1511 18.9998 34.6124 16.4611C32.2335 14.0822 29.356 12.756 26.4132 12.4123C26.66 11.028 27.3449 9.71635 28.4219 8.61037C29.4915 7.51165 30.871 6.69366 32.3472 6.25804C32.3981 6.42019 32.4465 6.58717 32.49 6.759C32.5892 7.15832 32.6546 7.56489 32.6885 7.97389C32.7417 8.63457 32.8676 9.23233 33.1192 9.69457C33.7025 10.7667 35.0408 11.5314 36.1613 11.0547C36.972 10.711 37.444 9.80832 37.4851 8.9274C37.5238 8.04649 37.1995 7.18978 36.7881 6.41051C36.7203 6.28466 36.6502 6.16124 36.5776 6.03781C38.153 6.29676 39.7213 6.91147 41.108 7.83594C44.9608 10.4061 47.7584 15.0333 44.8591 19.4282C44.634 19.7718 44.3799 20.0961 44.1016 20.3986V20.3938ZM5.59071 24.6629C4.02249 23.3536 2.90441 21.4586 2.52445 19.4621C2.06948 17.071 2.54865 14.3774 3.84098 12.0735C5.76737 8.64183 9.23295 5.85631 13.0567 6.6622C12.1927 8.4458 11.8031 10.4787 12.1104 12.4293C12.396 14.2419 13.2914 15.7206 14.4119 17.0613C11.9604 19.738 10.6729 23.0535 10.6293 26.3909C8.85299 26.5094 7.0839 25.9068 5.59071 24.6605V24.6629ZM14.9347 17.6639C15.4986 18.2859 16.1012 18.8837 16.7013 19.4766C17.0474 19.8178 17.3911 20.159 17.7275 20.5124C19.3489 22.2137 20.9704 23.915 22.5919 25.6164C24.6223 27.7461 26.6528 29.8758 28.6832 32.0055C29.9441 33.3268 31.2025 34.653 32.4658 35.972C32.6134 36.1245 32.7538 36.2793 32.8942 36.4318C29.3536 38.697 23.5308 37.2909 18.6519 32.4145C13.5504 27.3129 12.2145 21.144 14.9347 17.6639ZM27.0932 51.2791C23.1872 52.1648 18.71 51.4194 16.8006 47.8861C18.3567 47.3876 19.8063 46.5188 20.9559 45.3716C22.374 43.9559 23.2332 42.2255 23.4558 40.3959C26.9771 40.6742 30.5612 39.5465 33.4774 37.1143C34.5011 38.3897 35.1957 39.7546 35.2659 41.5455C35.324 42.9999 35.0045 44.4835 34.3729 45.8024C34.2083 45.7274 34.0437 45.6475 33.8792 45.5604C33.5161 45.3668 33.1701 45.1441 32.8458 44.8925C32.3206 44.4883 31.7906 44.1809 31.28 44.0599C30.0941 43.7744 28.63 44.256 28.2331 45.4079C27.9451 46.2404 28.2984 47.1964 28.9252 47.8159C29.552 48.4355 30.4063 48.7694 31.2606 48.9848C31.4107 49.0235 31.5607 49.055 31.7108 49.0865C30.4015 50.1247 28.8066 50.8943 27.0981 51.2839L27.0932 51.2791ZM46.2942 33.3631C46.7831 35.7493 46.3402 38.4478 45.0793 40.7686C43.1433 44.3334 39.5639 47.2375 35.5853 46.2308C36.2412 44.8174 36.5848 43.2492 36.5243 41.6907C36.4469 39.6409 35.5998 37.8524 34.4043 36.2648C34.4334 36.2358 34.4624 36.2116 34.4914 36.1825C37.2068 33.4672 38.654 30.0137 38.7411 26.5264C40.2948 26.5554 41.8292 27.1314 43.1529 28.2059C44.7381 29.491 45.8828 31.3714 46.2918 33.3631H46.2942ZM33.9179 35.6066C33.9179 35.6066 33.9034 35.6187 33.8985 35.6259C33.7557 35.4565 33.6129 35.2895 33.4653 35.125C33.158 34.7837 32.8434 34.4498 32.5263 34.1182C30.5394 32.0297 28.5501 29.9435 26.5535 27.8647C26.3575 27.659 26.1591 27.4557 25.963 27.25C23.4776 24.6726 20.9583 22.129 18.4995 19.5274C17.6355 18.615 16.6917 17.7075 15.8495 16.7274C19.3029 13.8716 25.5637 15.1761 30.7306 20.3406C36.1153 25.7253 37.2673 32.262 33.9227 35.609L33.9179 35.6066ZM27.5046 7.71494C26.2099 9.04599 25.3967 10.636 25.1281 12.3204C21.6408 12.255 18.1461 13.5522 15.3509 16.1223C14.7532 15.3552 14.2329 14.5348 13.8723 13.6248C13.0397 11.5217 13.306 9.07987 14.303 7.05183C14.5717 7.16316 14.8403 7.29142 15.1113 7.44147C15.4695 7.63991 15.8132 7.8674 16.1375 8.12393C16.6578 8.53535 17.1829 8.84996 17.6912 8.97822C18.8722 9.28074 20.3436 8.82092 20.7574 7.6738C21.0575 6.84612 20.7163 5.88535 20.0992 5.25612C19.482 4.62932 18.6326 4.28325 17.7807 4.05576C17.4879 3.97832 17.195 3.91539 16.9022 3.86457C18.1873 2.83119 19.7482 2.05433 21.4278 1.65018C25.3846 0.694242 29.9513 1.41301 31.8608 5.06978C30.2248 5.578 28.6977 6.49521 27.5071 7.71494H27.5046Z" fill="#342B19"/>
</g>
<defs>
<clipPath id="clip0_1184_596">
<rect width="48.6438" height="53" fill="white"/>
</clipPath>
</defs>
</svg>
